<svg xmlns="http://www.w3.org/2000/svg" xmlns:xlink="http://www.w3.org/1999/xlink" width="500" zoomAndPan="magnify" viewBox="0 0 375 374.999991" height="500" preserveAspectRatio="xMidYMid meet" version="1.0"><defs><clipPath id="f5c3efd661"><path d="M 45.683594 37.5 L 329.183594 37.5 L 329.183594 337.5 L 45.683594 337.5 Z M 45.683594 37.5 " clip-rule="nonzero"/></clipPath></defs><g clip-path="url(#f5c3efd661)"><path fill="#ffffff" d="M 306.832031 87.730469 C 304.324219 84.75 299.277344 82.300781 292.367188 80.324219 C 292.769531 68.183594 290.703125 55.089844 283.734375 46.589844 C 278.851562 40.644531 272.03125 37.5 263.988281 37.5 L 263.875 37.5 C 258.042969 37.519531 249.375 40.152344 242.628906 47.464844 C 238.277344 52.164062 233.429688 60.449219 233.449219 73.613281 C 207.886719 72.882812 179.414062 73.742188 154.085938 75.609375 C 152.699219 65.625 149.664062 55.824219 144.761719 48.765625 C 140.5 42.621094 135.015625 38.871094 128.890625 37.882812 C 120.625 36.566406 113.308594 38.597656 107.734375 43.734375 C 99.503906 51.304688 95.574219 65.203125 96.414062 82.941406 C 92.136719 83.910156 88.640625 84.933594 86.171875 85.976562 C 84.199219 86.816406 82.40625 87.804688 80.707031 88.882812 C 66.972656 95.410156 47.113281 107.847656 46.109375 125.636719 C 45.011719 144.984375 46.074219 288.238281 59.328125 308.167969 C 69.078125 322.816406 84.929688 337.519531 143.207031 337.519531 C 161.585938 337.519531 184.1875 336.054688 212.144531 332.671875 C 321.496094 319.414062 328.207031 318.574219 327.894531 224.070312 C 331.570312 178.960938 328.480469 113.515625 306.832031 87.769531 Z M 58.925781 146.667969 C 59.496094 166.269531 61.449219 213.046875 67.851562 259.382812 C 74.433594 307.125 83.300781 315.464844 127.296875 315.464844 C 136.972656 315.464844 148.363281 315.0625 161.785156 314.585938 C 169.90625 314.296875 178.792969 313.984375 188.574219 313.710938 C 288.527344 310.894531 305.40625 298.148438 319.648438 267.757812 C 319.410156 270.738281 319.117188 273.535156 318.734375 276.152344 C 302.679688 316.671875 211.78125 319.230469 176.617188 320.203125 C 173.527344 320.292969 170.835938 320.367188 168.605469 320.457031 C 137.375 321.683594 111.554688 320.804688 87.105469 312.449219 C 65.4375 305.0625 64.121094 278.617188 61.449219 225.957031 C 61.160156 219.976562 60.828125 213.683594 60.464844 207.066406 C 59.109375 182.453125 58.78125 162.265625 58.910156 146.667969 Z M 263.839844 299.832031 C 270.039062 294.164062 276.511719 285.769531 279.585938 273.808594 L 280.917969 268.582031 C 286.515625 246.398438 288.582031 240.585938 303.394531 240.199219 L 318.828125 239.78125 C 317.363281 250.570312 315.480469 258.960938 313.46875 263.351562 C 304.855469 282.148438 295.804688 293.449219 263.859375 299.832031 Z M 320.433594 224.859375 C 320.214844 227.417969 319.976562 229.90625 319.722656 232.300781 L 303.171875 232.738281 C 282.109375 233.304688 278.925781 245.90625 273.679688 266.75 L 272.363281 271.945312 C 266.929688 293.027344 248.699219 301.605469 246.578125 302.539062 C 231.402344 304.382812 212.421875 305.574219 188.335938 306.25 C 178.535156 306.523438 169.628906 306.835938 161.492188 307.125 C 86.796875 309.796875 82.316406 309.941406 75.203125 258.359375 C 69.9375 220.175781 67.703125 181.683594 66.773438 158.589844 L 318.769531 143.484375 C 322.5 169.6875 322.464844 199.714844 320.527344 223.597656 L 320.417969 223.597656 C 320.417969 224.035156 320.417969 224.417969 320.417969 224.859375 Z M 250.839844 55.054688 C 254.898438 50.664062 260.328125 48.691406 263.933594 48.671875 C 268.777344 48.5625 272.34375 50.300781 275.105469 53.664062 C 279.585938 59.113281 281.285156 68.421875 281.25 77.785156 C 270.953125 75.9375 258.390625 74.710938 244.601562 74.035156 C 244.492188 66.0625 246.578125 59.664062 250.855469 55.035156 Z M 200.589844 80.929688 C 205.34375 80.855469 209.988281 80.800781 214.503906 80.800781 C 221.691406 80.800781 228.511719 80.910156 235.023438 81.113281 C 236.136719 82.355469 237.78125 83.085938 239.574219 82.941406 C 240.910156 82.832031 242.078125 82.265625 242.976562 81.40625 C 258.207031 82.097656 271.0625 83.359375 280.882812 85.136719 C 280.625 87.695312 280.261719 90.183594 279.785156 92.523438 C 278.046875 101.082031 274.886719 106.328125 270.367188 108.121094 C 266.164062 109.804688 260.859375 108.484375 256.746094 106.710938 C 256.234375 100.277344 252.519531 95.410156 247.839844 95.410156 C 242.792969 95.410156 238.824219 101.042969 238.824219 108.210938 C 238.824219 115.378906 242.792969 121.011719 247.839844 121.011719 C 250.234375 121.011719 252.375 119.714844 253.964844 117.609375 C 257.476562 118.964844 261.683594 120.0625 266.070312 120.0625 C 268.851562 120.0625 271.683594 119.621094 274.464844 118.523438 C 282.730469 115.253906 288.195312 107.242188 290.738281 94.734375 C 291.195312 92.523438 291.5625 90.144531 291.855469 87.675781 C 296.460938 89.101562 299.644531 90.730469 301.160156 92.523438 C 309.703125 102.691406 315.113281 119.96875 318.257812 139.773438 L 66.644531 154.859375 C 66.242188 143.886719 66.152344 137.195312 66.152344 136.992188 C 66.152344 136.664062 65.984375 107.535156 84.363281 95.429688 C 90.835938 92.414062 95.792969 90.765625 95.9375 90.710938 L 95.9375 90.65625 C 96.816406 90.417969 97.839844 90.199219 98.847656 89.960938 C 99.886719 90.710938 101.167969 91.132812 102.539062 91.023438 C 104.40625 90.875 105.976562 89.835938 106.875 88.351562 C 116.746094 86.597656 129.402344 85.042969 143.664062 83.800781 C 144.011719 89.890625 143.703125 95.796875 142.730469 100.605469 C 140.996094 109.164062 137.832031 114.410156 133.316406 116.203125 C 129.109375 117.886719 123.804688 116.550781 119.671875 114.792969 C 119.160156 108.359375 115.449219 103.496094 110.769531 103.496094 C 105.722656 103.496094 101.753906 109.109375 101.753906 116.292969 C 101.753906 123.480469 105.722656 129.09375 110.769531 129.09375 C 113.164062 129.09375 115.304688 127.796875 116.894531 125.691406 C 120.40625 127.046875 124.609375 128.144531 129 128.144531 C 131.777344 128.144531 134.613281 127.703125 137.394531 126.609375 C 145.65625 123.335938 151.125 115.324219 153.667969 102.816406 C 154.835938 97.058594 155.238281 90.089844 154.800781 82.902344 C 169.210938 81.878906 184.789062 81.167969 200.550781 80.894531 Z M 251.023438 103.660156 C 248.5 101.886719 245.023438 102.488281 243.25 105.011719 C 243.050781 105.304688 242.867188 105.617188 242.71875 105.925781 C 243.339844 102.085938 245.40625 99.160156 247.804688 99.160156 C 249.941406 99.160156 251.828125 101.484375 252.648438 104.699219 C 252.007812 104.316406 251.441406 103.96875 251.023438 103.675781 Z M 250.363281 116.09375 C 249.59375 116.84375 248.734375 117.300781 247.820312 117.300781 C 245.40625 117.300781 243.324219 114.335938 242.71875 110.480469 C 243.121094 111.375 243.726562 112.179688 244.585938 112.800781 C 244.824219 112.964844 247.015625 114.484375 250.363281 116.09375 Z M 114.003906 111.757812 C 111.480469 109.984375 108.007812 110.589844 106.234375 113.113281 C 106.03125 113.40625 105.847656 113.714844 105.703125 114.046875 C 106.324219 110.207031 108.390625 107.28125 110.785156 107.28125 C 112.925781 107.28125 114.808594 109.601562 115.632812 112.800781 C 114.992188 112.417969 114.425781 112.070312 114.003906 111.777344 Z M 113.328125 124.195312 C 112.558594 124.945312 111.699219 125.402344 110.785156 125.402344 C 108.371094 125.402344 106.289062 122.4375 105.683594 118.5625 C 106.085938 119.457031 106.691406 120.28125 107.550781 120.882812 C 107.789062 121.046875 109.980469 122.566406 113.328125 124.175781 Z M 115.320312 51.984375 C 118.394531 49.148438 122.269531 48.160156 127.152344 48.945312 C 130.242188 49.441406 133.09375 51.523438 135.601562 55.144531 C 139.3125 60.484375 141.726562 68.347656 142.933594 76.523438 C 129.53125 77.710938 117.386719 79.171875 107.511719 80.820312 C 107.148438 67.542969 109.964844 56.917969 115.320312 51.984375 Z M 65.164062 107.167969 C 61.632812 114.683594 60.042969 122.421875 59.3125 128.160156 C 59.585938 120.574219 59.933594 115.160156 60.171875 111.925781 C 61.671875 110.242188 63.351562 108.652344 65.164062 107.152344 Z M 211.121094 325.265625 C 89.484375 340.023438 73.902344 316.617188 65.527344 304.035156 C 54.792969 287.890625 51.996094 153.175781 53.550781 126.058594 C 53.714844 123.113281 54.628906 120.316406 56.074219 117.683594 C 55.253906 132.113281 54.28125 162.484375 56.769531 207.285156 C 57.136719 213.90625 57.445312 220.195312 57.757812 226.15625 C 60.410156 278.785156 61.871094 307.785156 85.917969 315.996094 C 105.320312 322.613281 125.433594 324.644531 148.253906 324.644531 C 154.835938 324.644531 161.65625 324.480469 168.753906 324.207031 C 170.964844 324.113281 173.636719 324.042969 176.707031 323.949219 C 209.421875 323.035156 289.386719 320.804688 316.082031 287.910156 C 307.542969 313.5625 282.710938 316.582031 211.121094 325.265625 Z M 211.121094 325.265625 " fill-opacity="1" fill-rule="nonzero"/></g></svg>