<svg xmlns="http://www.w3.org/2000/svg" xmlns:xlink="http://www.w3.org/1999/xlink" width="500" zoomAndPan="magnify" viewBox="0 0 375 374.999991" height="500" preserveAspectRatio="xMidYMid meet" version="1.0"><defs><clipPath id="fc0f6797e2"><path d="M 44.863281 37.5 L 329.863281 37.5 L 329.863281 337.5 L 44.863281 337.5 Z M 44.863281 37.5 " clip-rule="nonzero"/></clipPath></defs><g clip-path="url(#fc0f6797e2)"><path fill="#ffffff" d="M 326.652344 183.9375 C 326.652344 162.289062 320.46875 141.929688 309.59375 124.164062 C 320.742188 114.644531 330.859375 97.40625 330.0625 80.308594 C 329.460938 67.164062 322.589844 56.285156 310.191406 48.855469 C 298.734375 41.984375 287.367188 40.097656 276.414062 43.269531 C 259.480469 48.183594 248.640625 63.757812 244.707031 70.320312 C 227.320312 63.285156 208.066406 59.332031 187.796875 59.332031 C 167.527344 59.332031 149.144531 63.105469 132.066406 69.847656 C 131.996094 69.613281 131.996094 69.359375 131.867188 69.121094 C 131.378906 68.144531 119.667969 45.28125 98.492188 39.136719 C 87.578125 35.945312 76.226562 37.832031 64.769531 44.703125 C 52.371094 52.152344 45.515625 63.011719 44.898438 76.15625 C 44.066406 94.378906 55.613281 112.761719 67.578125 121.789062 C 55.796875 140.101562 48.996094 161.3125 48.996094 183.9375 C 48.996094 219.617188 65.804688 251.796875 92.671875 274.53125 C 63.554688 318.078125 65.367188 330.550781 66.671875 333.324219 C 67.761719 335.644531 69.847656 337.058594 72.546875 337.3125 C 72.855469 337.351562 73.144531 337.351562 73.453125 337.351562 C 88.375 337.351562 108.046875 302.902344 114.933594 289.886719 C 136.128906 301.671875 161.109375 308.507812 187.816406 308.507812 C 214.519531 308.507812 240.84375 301.289062 262.402344 288.90625 C 268.78125 301.054688 289.085938 337.351562 304.40625 337.351562 C 304.714844 337.351562 305.003906 337.351562 305.3125 337.3125 C 308.015625 337.058594 310.101562 335.628906 311.1875 333.324219 C 312.511719 330.515625 314.378906 317.878906 284.390625 273.316406 C 310.425781 250.65625 326.652344 218.964844 326.652344 183.917969 Z M 278.554688 50.359375 C 287.4375 47.800781 296.8125 49.414062 306.417969 55.179688 C 316.734375 61.363281 322.210938 69.9375 322.699219 80.636719 C 323.351562 95.011719 314.941406 109.570312 305.511719 117.925781 C 292.332031 99.074219 273.695312 83.589844 251.59375 73.292969 C 255.421875 67.183594 264.867188 54.3125 278.554688 50.359375 Z M 52.277344 76.5 C 52.769531 65.804688 58.242188 57.230469 68.558594 51.046875 C 78.167969 45.28125 87.539062 43.652344 96.425781 46.226562 C 114.5 51.445312 125.195312 72.242188 125.304688 72.457031 C 125.339844 72.550781 125.433594 72.585938 125.46875 72.675781 C 103.640625 82.574219 85.113281 97.476562 71.769531 115.699219 C 61.453125 107.792969 51.570312 92.039062 52.277344 76.5 Z M 73.273438 329.953125 C 71.675781 325.277344 83.097656 302.324219 98.453125 279.171875 C 101.699219 281.636719 105.070312 283.957031 108.570312 286.132812 C 96.96875 308.125 80.851562 330.371094 73.273438 329.953125 Z M 304.605469 329.953125 C 297.046875 330.660156 280.457031 307.546875 268.765625 285.066406 C 272.191406 282.851562 275.492188 280.496094 278.679688 278.03125 C 294.4375 301.597656 306.273438 325.277344 304.625 329.972656 Z M 187.832031 301.128906 C 115.351562 301.128906 56.394531 248.550781 56.394531 183.917969 C 56.394531 119.289062 115.351562 66.710938 187.832031 66.710938 C 260.316406 66.710938 319.273438 119.289062 319.273438 183.917969 C 319.273438 248.550781 260.316406 301.128906 187.832031 301.128906 Z M 187.832031 301.128906 " fill-opacity="1" fill-rule="nonzero"/></g><path fill="#ffffff" d="M 187.832031 72.132812 C 119.050781 72.132812 63.101562 122.277344 63.101562 183.9375 C 63.101562 245.597656 119.066406 295.742188 187.832031 295.742188 C 256.597656 295.742188 312.566406 245.597656 312.566406 183.9375 C 312.566406 122.277344 256.617188 72.132812 187.832031 72.132812 Z M 187.832031 292.042969 C 121.082031 292.042969 66.78125 243.546875 66.78125 183.9375 C 66.78125 124.328125 121.082031 75.832031 187.832031 75.832031 C 254.585938 75.832031 308.886719 124.328125 308.886719 183.9375 C 308.886719 243.546875 254.585938 292.042969 187.832031 292.042969 Z M 187.832031 292.042969 " fill-opacity="1" fill-rule="nonzero"/><path fill="#ffffff" d="M 192.058594 279.40625 C 192.058594 279.769531 192.023438 280.128906 191.953125 280.488281 C 191.882812 280.84375 191.777344 281.1875 191.636719 281.523438 C 191.5 281.859375 191.328125 282.179688 191.125 282.480469 C 190.925781 282.78125 190.695312 283.0625 190.4375 283.316406 C 190.183594 283.574219 189.902344 283.804688 189.601562 284.003906 C 189.296875 284.207031 188.980469 284.378906 188.644531 284.515625 C 188.308594 284.65625 187.964844 284.761719 187.605469 284.832031 C 187.25 284.902344 186.890625 284.9375 186.527344 284.9375 C 186.164062 284.9375 185.804688 284.902344 185.449219 284.832031 C 185.09375 284.761719 184.746094 284.65625 184.414062 284.515625 C 184.078125 284.378906 183.757812 284.207031 183.457031 284.003906 C 183.15625 283.804688 182.875 283.574219 182.617188 283.316406 C 182.363281 283.0625 182.132812 282.78125 181.929688 282.480469 C 181.730469 282.179688 181.558594 281.859375 181.417969 281.523438 C 181.28125 281.1875 181.175781 280.84375 181.105469 280.488281 C 181.035156 280.128906 181 279.769531 181 279.40625 C 181 279.046875 181.035156 278.683594 181.105469 278.328125 C 181.175781 277.972656 181.28125 277.628906 181.417969 277.292969 C 181.558594 276.957031 181.730469 276.636719 181.929688 276.335938 C 182.132812 276.035156 182.363281 275.753906 182.617188 275.5 C 182.875 275.242188 183.15625 275.011719 183.457031 274.808594 C 183.757812 274.609375 184.078125 274.4375 184.414062 274.300781 C 184.746094 274.160156 185.09375 274.054688 185.449219 273.984375 C 185.804688 273.914062 186.164062 273.878906 186.527344 273.878906 C 186.890625 273.878906 187.25 273.914062 187.605469 273.984375 C 187.964844 274.054688 188.308594 274.160156 188.644531 274.300781 C 188.980469 274.4375 189.296875 274.609375 189.601562 274.808594 C 189.902344 275.011719 190.183594 275.242188 190.4375 275.5 C 190.695312 275.753906 190.925781 276.035156 191.125 276.335938 C 191.328125 276.636719 191.5 276.957031 191.636719 277.292969 C 191.777344 277.628906 191.882812 277.972656 191.953125 278.328125 C 192.023438 278.683594 192.058594 279.046875 192.058594 279.40625 Z M 192.058594 279.40625 " fill-opacity="1" fill-rule="nonzero"/><path fill="#ffffff" d="M 291.933594 183.9375 C 288.886719 183.9375 286.40625 186.402344 286.40625 189.46875 C 286.40625 192.53125 288.871094 194.996094 291.933594 194.996094 C 294.996094 194.996094 297.464844 192.53125 297.464844 189.46875 C 297.464844 186.402344 294.996094 183.9375 291.933594 183.9375 Z M 291.933594 183.9375 " fill-opacity="1" fill-rule="nonzero"/><path fill="#ffffff" d="M 198.894531 89.917969 C 198.894531 90.28125 198.859375 90.640625 198.785156 90.996094 C 198.714844 91.351562 198.609375 91.699219 198.472656 92.035156 C 198.332031 92.367188 198.164062 92.6875 197.960938 92.988281 C 197.757812 93.292969 197.53125 93.570312 197.273438 93.828125 C 197.015625 94.085938 196.738281 94.3125 196.433594 94.515625 C 196.132812 94.714844 195.816406 94.886719 195.480469 95.027344 C 195.144531 95.164062 194.796875 95.269531 194.441406 95.339844 C 194.085938 95.410156 193.726562 95.445312 193.363281 95.445312 C 193 95.445312 192.640625 95.410156 192.285156 95.339844 C 191.929688 95.269531 191.582031 95.164062 191.246094 95.027344 C 190.910156 94.886719 190.59375 94.714844 190.292969 94.515625 C 189.988281 94.3125 189.710938 94.085938 189.453125 93.828125 C 189.195312 93.570312 188.96875 93.292969 188.765625 92.988281 C 188.5625 92.6875 188.394531 92.367188 188.253906 92.035156 C 188.117188 91.699219 188.011719 91.351562 187.941406 90.996094 C 187.871094 90.640625 187.832031 90.28125 187.832031 89.917969 C 187.832031 89.554688 187.871094 89.195312 187.941406 88.839844 C 188.011719 88.484375 188.117188 88.136719 188.253906 87.800781 C 188.394531 87.464844 188.5625 87.148438 188.765625 86.84375 C 188.96875 86.542969 189.195312 86.265625 189.453125 86.007812 C 189.710938 85.75 189.988281 85.519531 190.292969 85.320312 C 190.59375 85.117188 190.910156 84.949219 191.246094 84.808594 C 191.582031 84.667969 191.929688 84.566406 192.285156 84.492188 C 192.640625 84.421875 193 84.386719 193.363281 84.386719 C 193.726562 84.386719 194.085938 84.421875 194.441406 84.492188 C 194.796875 84.566406 195.144531 84.667969 195.480469 84.808594 C 195.816406 84.949219 196.132812 85.117188 196.433594 85.320312 C 196.738281 85.519531 197.015625 85.75 197.273438 86.007812 C 197.53125 86.265625 197.757812 86.542969 197.960938 86.84375 C 198.164062 87.148438 198.332031 87.464844 198.472656 87.800781 C 198.609375 88.136719 198.714844 88.484375 198.785156 88.839844 C 198.859375 89.195312 198.894531 89.554688 198.894531 89.917969 Z M 198.894531 89.917969 " fill-opacity="1" fill-rule="nonzero"/><path fill="#ffffff" d="M 94.105469 189.449219 C 94.105469 189.8125 94.066406 190.171875 93.996094 190.527344 C 93.925781 190.882812 93.820312 191.230469 93.683594 191.566406 C 93.542969 191.902344 93.375 192.21875 93.171875 192.519531 C 92.96875 192.824219 92.742188 193.101562 92.484375 193.359375 C 92.226562 193.617188 91.949219 193.84375 91.644531 194.046875 C 91.34375 194.25 91.027344 194.417969 90.691406 194.558594 C 90.355469 194.695312 90.007812 194.800781 89.652344 194.871094 C 89.296875 194.941406 88.9375 194.976562 88.574219 194.976562 C 88.210938 194.976562 87.851562 194.941406 87.496094 194.871094 C 87.140625 194.800781 86.792969 194.695312 86.457031 194.558594 C 86.121094 194.417969 85.804688 194.25 85.503906 194.046875 C 85.199219 193.84375 84.921875 193.617188 84.664062 193.359375 C 84.40625 193.101562 84.179688 192.824219 83.976562 192.519531 C 83.773438 192.21875 83.605469 191.902344 83.464844 191.566406 C 83.328125 191.230469 83.222656 190.882812 83.152344 190.527344 C 83.078125 190.171875 83.042969 189.8125 83.042969 189.449219 C 83.042969 189.085938 83.078125 188.726562 83.152344 188.371094 C 83.222656 188.015625 83.328125 187.667969 83.464844 187.332031 C 83.605469 186.996094 83.773438 186.679688 83.976562 186.375 C 84.179688 186.074219 84.40625 185.796875 84.664062 185.539062 C 84.921875 185.28125 85.199219 185.054688 85.503906 184.851562 C 85.804688 184.648438 86.121094 184.480469 86.457031 184.339844 C 86.792969 184.203125 87.140625 184.097656 87.496094 184.027344 C 87.851562 183.953125 88.210938 183.917969 88.574219 183.917969 C 88.9375 183.917969 89.296875 183.953125 89.652344 184.027344 C 90.007812 184.097656 90.355469 184.203125 90.691406 184.339844 C 91.027344 184.480469 91.34375 184.648438 91.644531 184.851562 C 91.949219 185.054688 92.226562 185.28125 92.484375 185.539062 C 92.742188 185.796875 92.96875 186.074219 93.171875 186.375 C 93.375 186.679688 93.542969 186.996094 93.683594 187.332031 C 93.820312 187.667969 93.925781 188.015625 93.996094 188.371094 C 94.066406 188.726562 94.105469 189.085938 94.105469 189.449219 Z M 94.105469 189.449219 " fill-opacity="1" fill-rule="nonzero"/><path fill="#ffffff" d="M 141.222656 110.640625 L 134.117188 101.394531 C 133.5 100.578125 132.320312 100.433594 131.523438 101.050781 C 130.707031 101.664062 130.5625 102.824219 131.179688 103.640625 L 138.285156 112.886719 C 138.648438 113.359375 139.191406 113.613281 139.753906 113.613281 C 140.152344 113.613281 140.550781 113.484375 140.878906 113.230469 C 141.695312 112.617188 141.839844 111.457031 141.222656 110.640625 Z M 141.222656 110.640625 " fill-opacity="1" fill-rule="nonzero"/><path fill="#ffffff" d="M 102.96875 149.527344 C 103.675781 149.527344 104.347656 149.128906 104.65625 148.441406 C 105.070312 147.515625 104.65625 146.410156 103.730469 145.992188 L 93.105469 141.167969 C 92.183594 140.753906 91.074219 141.167969 90.660156 142.09375 C 90.242188 143.019531 90.660156 144.125 91.582031 144.542969 L 102.207031 149.363281 C 102.460938 149.472656 102.714844 149.527344 102.96875 149.527344 Z M 102.96875 149.527344 " fill-opacity="1" fill-rule="nonzero"/><path fill="#ffffff" d="M 108.28125 226.289062 L 99.035156 233.394531 C 98.21875 234.011719 98.074219 235.171875 98.691406 235.988281 C 99.054688 236.460938 99.597656 236.710938 100.160156 236.710938 C 100.558594 236.710938 100.957031 236.585938 101.28125 236.332031 L 110.527344 229.226562 C 111.34375 228.609375 111.488281 227.449219 110.875 226.632812 C 110.257812 225.816406 109.078125 225.671875 108.28125 226.289062 Z M 108.28125 226.289062 " fill-opacity="1" fill-rule="nonzero"/><path fill="#ffffff" d="M 148.765625 255.296875 C 147.914062 254.769531 146.769531 255.023438 146.226562 255.894531 L 140.082031 265.8125 C 139.535156 266.679688 139.808594 267.824219 140.679688 268.347656 C 140.988281 268.53125 141.3125 268.621094 141.65625 268.621094 C 142.273438 268.621094 142.871094 268.3125 143.234375 267.75 L 149.382812 257.832031 C 149.925781 256.964844 149.652344 255.820312 148.78125 255.296875 Z M 148.765625 255.296875 " fill-opacity="1" fill-rule="nonzero"/><path fill="#ffffff" d="M 241.441406 101.394531 L 234.335938 110.640625 C 233.71875 111.457031 233.863281 112.617188 234.679688 113.230469 C 235.023438 113.484375 235.40625 113.613281 235.804688 113.613281 C 236.347656 113.613281 236.910156 113.359375 237.273438 112.886719 L 244.378906 103.640625 C 244.996094 102.824219 244.851562 101.664062 244.035156 101.050781 C 243.21875 100.433594 242.078125 100.578125 241.441406 101.394531 Z M 241.441406 101.394531 " fill-opacity="1" fill-rule="nonzero"/><path fill="#ffffff" d="M 282.453125 141.1875 L 271.828125 146.011719 C 270.902344 146.425781 270.488281 147.535156 270.902344 148.457031 C 271.210938 149.148438 271.882812 149.546875 272.589844 149.546875 C 272.84375 149.546875 273.097656 149.492188 273.351562 149.382812 L 283.976562 144.558594 C 284.898438 144.144531 285.316406 143.035156 284.898438 142.113281 C 284.484375 141.1875 283.375 140.769531 282.453125 141.1875 Z M 282.453125 141.1875 " fill-opacity="1" fill-rule="nonzero"/><path fill="#ffffff" d="M 267.277344 226.289062 C 266.460938 225.671875 265.320312 225.816406 264.683594 226.632812 C 264.070312 227.449219 264.214844 228.589844 265.03125 229.226562 L 274.277344 236.332031 C 274.621094 236.585938 275 236.710938 275.398438 236.710938 C 275.945312 236.710938 276.503906 236.460938 276.867188 235.988281 C 277.484375 235.171875 277.339844 234.03125 276.523438 233.394531 Z M 267.277344 226.289062 " fill-opacity="1" fill-rule="nonzero"/><path fill="#ffffff" d="M 229.332031 255.894531 C 228.789062 255.023438 227.644531 254.769531 226.792969 255.296875 C 225.925781 255.839844 225.671875 256.980469 226.195312 257.832031 L 232.34375 267.75 C 232.6875 268.3125 233.304688 268.621094 233.917969 268.621094 C 234.265625 268.621094 234.589844 268.53125 234.898438 268.347656 C 235.769531 267.804688 236.023438 266.664062 235.496094 265.8125 L 229.351562 255.894531 Z M 229.332031 255.894531 " fill-opacity="1" fill-rule="nonzero"/><path fill="#ffffff" d="M 219.199219 183.449219 L 199.65625 183.449219 C 198.855469 179.949219 196.136719 177.210938 192.675781 176.378906 L 192.675781 123.3125 C 192.675781 121.261719 191.023438 119.613281 188.976562 119.613281 C 186.925781 119.613281 185.277344 121.261719 185.277344 123.3125 L 185.277344 177.648438 C 182.703125 179.332031 181 182.234375 181 185.53125 C 181 190.753906 185.222656 194.976562 190.445312 194.976562 C 193.691406 194.976562 196.554688 193.328125 198.257812 190.828125 L 219.179688 190.828125 C 221.230469 190.828125 222.878906 189.175781 222.878906 187.128906 C 222.878906 185.078125 221.230469 183.429688 219.179688 183.429688 Z M 219.199219 183.449219 " fill-opacity="1" fill-rule="nonzero"/></svg>