<svg xmlns="http://www.w3.org/2000/svg" xmlns:xlink="http://www.w3.org/1999/xlink" width="323" zoomAndPan="magnify" viewBox="0 0 242.87999 153.000002" height="204" preserveAspectRatio="xMidYMid meet" version="1.0"><defs><g/><clipPath id="df3ac91d42"><path d="M 49.074219 34.597656 L 193.625 34.597656 L 193.625 118 L 49.074219 118 Z M 49.074219 34.597656 " clip-rule="nonzero"/></clipPath><clipPath id="ca9b67e049"><path d="M 131.046875 34.597656 C 132.628906 34.597656 134.222656 34.597656 135.800781 34.597656 C 148.402344 35.984375 156.277344 40.609375 159.863281 48.175781 C 180.871094 47.167969 196.441406 61.472656 186.835938 75.511719 C 189.929688 78.460938 192.511719 81.761719 193.445312 86.191406 C 193.445312 87.460938 193.445312 88.726562 193.445312 89.996094 C 190.667969 101.269531 178.707031 108.886719 159.074219 106.835938 C 154.023438 112.625 145.035156 118.597656 131.046875 117.699219 C 123.820312 117.320312 118.789062 115.117188 114.386719 112.445312 C 109.746094 114.667969 104.722656 116.410156 97.464844 116.429688 C 80.675781 116.464844 69.441406 107.898438 69.171875 96.152344 C 58.375 93.40625 51.066406 88.277344 49.074219 79.5 C 49.074219 78.230469 49.074219 76.957031 49.074219 75.695312 C 51.273438 67 58.183594 61.535156 69.695312 59.21875 C 69.003906 44.546875 92.03125 35.378906 110.945312 41.84375 C 115.449219 38.648438 121.820312 35.160156 131.046875 34.597656 Z M 131.046875 34.597656 " clip-rule="nonzero"/></clipPath></defs><g clip-path="url(#df3ac91d42)"><g clip-path="url(#ca9b67e049)"><path stroke-linecap="butt" transform="matrix(0.74513, 0, 0, 0.74513, 49.074627, 34.597084)" fill="none" stroke-linejoin="miter" d="M 110.010696 0.000767357 C 112.133858 0.000767357 114.272747 0.000767357 116.390667 0.000767357 C 133.302569 1.861811 143.871198 8.068783 148.683698 18.223264 C 176.877192 16.870731 197.7733 36.068309 184.882299 54.909405 C 189.03426 58.867399 192.49947 63.297206 193.752398 69.242059 C 193.752398 70.945831 193.752398 72.644361 193.752398 74.348133 C 190.025069 89.477627 173.972916 99.700259 147.624739 96.948012 C 140.846347 104.717212 128.783642 112.732804 110.010696 111.527058 C 100.312302 111.018547 93.560123 108.061848 87.651966 104.476063 C 81.424024 107.458974 74.68233 109.797074 64.941997 109.823286 C 42.410268 109.870467 27.333197 98.373938 26.971473 82.610116 C 12.481548 78.924726 2.673064 72.041488 -0.000547467 60.26187 C -0.000547467 58.558098 -0.000547467 56.849084 -0.000547467 55.155797 C 2.95091 43.48627 12.224672 36.152187 27.673951 33.043458 C 26.746051 13.353097 57.649853 1.049242 83.033434 9.725373 C 89.077892 5.43711 97.628206 0.755669 110.010696 0.000767357 Z M 110.010696 0.000767357 " stroke="#ffffff" stroke-width="2" stroke-opacity="1" stroke-miterlimit="4"/></g></g><g fill="#ffffff" fill-opacity="1"><g transform="translate(76.228633, 85.245093)"><g><path d="M 5.015625 0 L 2.828125 0 L 2.828125 -18.6875 L 5.015625 -18.6875 Z M 5.015625 0 "/></g></g></g><g fill="#ffffff" fill-opacity="1"><g transform="translate(84.088571, 85.245093)"><g><path d="M 9.828125 0.265625 C 8.253906 0.265625 6.867188 -0.0859375 5.671875 -0.796875 C 4.484375 -1.515625 3.550781 -2.59375 2.875 -4.03125 C 2.195312 -5.476562 1.859375 -7.25 1.859375 -9.34375 C 1.859375 -11.4375 2.21875 -13.203125 2.9375 -14.640625 C 3.664062 -16.085938 4.664062 -17.164062 5.9375 -17.875 C 7.21875 -18.59375 8.691406 -18.953125 10.359375 -18.953125 C 12.148438 -18.953125 13.617188 -18.628906 14.765625 -17.984375 C 15.921875 -17.335938 16.738281 -16.378906 17.21875 -15.109375 L 15.78125 -14.265625 L 15.46875 -14.265625 C 14.976562 -15.234375 14.316406 -15.925781 13.484375 -16.34375 C 12.660156 -16.769531 11.617188 -16.984375 10.359375 -16.984375 C 6.265625 -16.984375 4.21875 -14.4375 4.21875 -9.34375 C 4.21875 -6.695312 4.734375 -4.765625 5.765625 -3.546875 C 6.796875 -2.328125 8.238281 -1.71875 10.09375 -1.71875 C 11.800781 -1.71875 13.078125 -2.101562 13.921875 -2.875 C 14.765625 -3.644531 15.1875 -4.867188 15.1875 -6.546875 L 15.1875 -8.1875 L 9.875 -8.1875 L 9.875 -9.953125 L 17.328125 -9.953125 L 17.328125 0 L 15.296875 0 L 15.296875 -2.5 L 15.03125 -2.5625 C 14.53125 -1.601562 13.835938 -0.890625 12.953125 -0.421875 C 12.078125 0.0351562 11.035156 0.265625 9.828125 0.265625 Z M 9.828125 0.265625 "/></g></g></g><g fill="#ffffff" fill-opacity="1"><g transform="translate(103.514732, 85.245093)"><g><path d="M 2.828125 0 L 2.828125 -18.6875 L 9.609375 -18.6875 C 10.859375 -18.6875 11.910156 -18.476562 12.765625 -18.0625 C 13.617188 -17.644531 14.257812 -17.0625 14.6875 -16.3125 C 15.113281 -15.5625 15.328125 -14.671875 15.328125 -13.640625 C 15.328125 -12.472656 15.035156 -11.515625 14.453125 -10.765625 C 13.867188 -10.015625 12.96875 -9.453125 11.75 -9.078125 L 11.75 -8.8125 C 12.351562 -8.570312 12.84375 -8.191406 13.21875 -7.671875 C 13.601562 -7.160156 13.957031 -6.398438 14.28125 -5.390625 L 16.015625 0 L 13.75 0 L 11.890625 -5.71875 C 11.660156 -6.382812 11.398438 -6.910156 11.109375 -7.296875 C 10.828125 -7.679688 10.460938 -7.957031 10.015625 -8.125 C 9.578125 -8.300781 9.015625 -8.390625 8.328125 -8.390625 L 5.015625 -8.390625 L 5.015625 0 Z M 9.5625 -10.25 C 10.726562 -10.25 11.59375 -10.519531 12.15625 -11.0625 C 12.726562 -11.601562 13.015625 -12.425781 13.015625 -13.53125 C 13.015625 -14.632812 12.726562 -15.457031 12.15625 -16 C 11.59375 -16.539062 10.726562 -16.8125 9.5625 -16.8125 L 5.015625 -16.8125 L 5.015625 -10.25 Z M 9.5625 -10.25 "/></g></g></g><g fill="#ffffff" fill-opacity="1"><g transform="translate(120.819351, 85.245093)"><g><path d="M 16.8125 0 L 14.46875 0 L 12.734375 -5.125 L 4.78125 -5.125 L 3.046875 0 L 0.734375 0 L 7.265625 -18.6875 L 10.296875 -18.6875 Z M 8.59375 -16.421875 L 5.390625 -6.96875 L 12.109375 -6.96875 L 8.921875 -16.421875 Z M 8.59375 -16.421875 "/></g></g></g><g fill="#ffffff" fill-opacity="1"><g transform="translate(138.379578, 85.245093)"><g><path d="M 10.328125 0.265625 C 8.691406 0.265625 7.234375 -0.109375 5.953125 -0.859375 C 4.671875 -1.609375 3.664062 -2.703125 2.9375 -4.140625 C 2.21875 -5.585938 1.859375 -7.320312 1.859375 -9.34375 C 1.859375 -11.363281 2.21875 -13.09375 2.9375 -14.53125 C 3.664062 -15.976562 4.671875 -17.078125 5.953125 -17.828125 C 7.234375 -18.578125 8.691406 -18.953125 10.328125 -18.953125 C 12.078125 -18.953125 13.53125 -18.617188 14.6875 -17.953125 C 15.84375 -17.296875 16.675781 -16.304688 17.1875 -14.984375 L 15.78125 -14.046875 L 15.46875 -14.046875 C 14.957031 -15.109375 14.289062 -15.863281 13.46875 -16.3125 C 12.65625 -16.757812 11.609375 -16.984375 10.328125 -16.984375 C 9.148438 -16.984375 8.101562 -16.71875 7.1875 -16.1875 C 6.28125 -15.664062 5.554688 -14.835938 5.015625 -13.703125 C 4.484375 -12.566406 4.21875 -11.113281 4.21875 -9.34375 C 4.21875 -7.570312 4.484375 -6.117188 5.015625 -4.984375 C 5.554688 -3.847656 6.28125 -3.019531 7.1875 -2.5 C 8.101562 -1.976562 9.148438 -1.71875 10.328125 -1.71875 C 11.679688 -1.71875 12.785156 -2.019531 13.640625 -2.625 C 14.503906 -3.238281 15.144531 -4.222656 15.5625 -5.578125 L 15.890625 -5.578125 L 17.359375 -4.859375 C 16.910156 -3.203125 16.085938 -1.929688 14.890625 -1.046875 C 13.691406 -0.171875 12.171875 0.265625 10.328125 0.265625 Z M 11.25 -20.03125 L 9 -20.03125 L 6.25 -23.328125 L 6.25 -23.609375 L 7.78125 -23.609375 L 10.125 -21.8125 L 12.484375 -23.609375 L 14 -23.609375 L 14 -23.328125 Z M 11.25 -20.03125 "/></g></g></g><g fill="#ffffff" fill-opacity="1"><g transform="translate(156.706626, 85.245093)"><g><path d="M 5.015625 -8.8125 L 5.015625 -1.8125 L 14.546875 -1.8125 L 14.546875 0 L 2.828125 0 L 2.828125 -18.6875 L 14.34375 -18.6875 L 14.34375 -16.875 L 5.015625 -16.875 L 5.015625 -10.625 L 13.234375 -10.625 L 13.234375 -8.8125 Z M 5.015625 -8.8125 "/></g></g></g></svg>