<svg xmlns="http://www.w3.org/2000/svg" xmlns:xlink="http://www.w3.org/1999/xlink" width="500" zoomAndPan="magnify" viewBox="0 0 375 374.999991" height="500" preserveAspectRatio="xMidYMid meet" version="1.0"><defs><clipPath id="c838d57b72"><path d="M 88.789062 37.5 L 286.039062 37.5 L 286.039062 337 L 88.789062 337 Z M 88.789062 37.5 " clip-rule="nonzero"/></clipPath></defs><g clip-path="url(#c838d57b72)"><path fill="#ffffff" d="M 187.414062 318.023438 L 269.296875 164.636719 C 270.855469 160.160156 272.007812 155.546875 272.820312 150.867188 C 273.632812 146.117188 274.042969 141.234375 274.042969 136.214844 C 274.042969 112.265625 264.347656 90.558594 248.691406 74.886719 C 232.964844 59.214844 211.339844 49.515625 187.414062 49.515625 C 163.488281 49.515625 141.863281 59.214844 126.136719 74.886719 C 110.480469 90.558594 100.785156 112.265625 100.785156 136.214844 C 100.785156 141.234375 101.195312 146.117188 102.007812 150.867188 C 102.820312 155.546875 103.972656 160.160156 105.53125 164.636719 Z M 187.414062 82.28125 C 202.597656 82.28125 216.289062 88.453125 226.1875 98.425781 C 236.148438 108.332031 242.320312 122.035156 242.320312 137.230469 C 242.320312 140.351562 242.046875 143.402344 241.503906 146.457031 C 240.964844 149.507812 240.21875 152.496094 239.199219 155.410156 C 235.40625 166.265625 228.289062 175.558594 219.070312 182.074219 C 210.121094 188.382812 199.207031 192.113281 187.414062 192.113281 C 175.621094 192.113281 164.707031 188.382812 155.757812 182.074219 C 146.539062 175.558594 139.492188 166.265625 135.695312 155.410156 L 135.628906 155.480469 C 134.609375 152.5625 133.863281 149.578125 133.324219 146.457031 C 132.78125 143.402344 132.507812 140.351562 132.507812 137.230469 C 132.507812 122.035156 138.675781 108.332031 148.640625 98.425781 C 158.539062 88.453125 172.230469 82.28125 187.414062 82.28125 Z M 217.78125 106.839844 C 209.984375 99.105469 199.277344 94.289062 187.414062 94.289062 C 175.550781 94.289062 164.84375 99.105469 157.046875 106.839844 C 149.320312 114.640625 144.507812 125.359375 144.507812 137.230469 C 144.507812 139.742188 144.710938 142.183594 145.117188 144.488281 C 145.523438 146.863281 146.132812 149.238281 146.878906 151.476562 C 149.863281 159.957031 155.421875 167.214844 162.605469 172.304688 C 169.585938 177.257812 178.128906 180.171875 187.414062 180.171875 C 196.699219 180.171875 205.242188 177.257812 212.222656 172.304688 C 219.40625 167.214844 224.964844 159.957031 227.949219 151.476562 C 228.695312 149.238281 229.304688 146.933594 229.710938 144.488281 C 230.117188 142.183594 230.320312 139.742188 230.320312 137.230469 C 230.320312 125.359375 225.507812 114.640625 217.78125 106.839844 Z M 280.074219 169.726562 L 192.699219 333.421875 C 192.160156 334.507812 191.34375 335.390625 190.191406 335.933594 C 187.347656 337.492188 183.6875 336.410156 182.125 333.492188 L 94.957031 170.132812 C 94.753906 169.726562 94.550781 169.386719 94.414062 168.910156 C 92.585938 163.757812 91.160156 158.328125 90.210938 152.832031 C 89.332031 147.339844 88.789062 141.84375 88.789062 136.214844 C 88.789062 108.941406 99.835938 84.316406 117.734375 66.40625 C 135.558594 48.5625 160.164062 37.507812 187.414062 37.507812 C 214.664062 37.507812 239.269531 48.5625 257.09375 66.40625 C 274.992188 84.316406 286.039062 108.941406 286.039062 136.214844 C 286.039062 141.84375 285.496094 147.339844 284.617188 152.832031 C 283.667969 158.328125 282.242188 163.757812 280.414062 168.910156 C 280.34375 169.183594 280.210938 169.453125 280.074219 169.726562 Z M 280.074219 169.726562 " fill-opacity="1" fill-rule="nonzero"/></g></svg>