<svg xmlns="http://www.w3.org/2000/svg" xmlns:xlink="http://www.w3.org/1999/xlink" width="500" zoomAndPan="magnify" viewBox="0 0 375 374.999991" height="500" preserveAspectRatio="xMidYMid meet" version="1.0"><defs><g/><clipPath id="90031b6401"><path d="M 74.652344 0.00390625 L 300.402344 0.00390625 L 300.402344 374.988281 L 74.652344 374.988281 Z M 74.652344 0.00390625 " clip-rule="nonzero"/></clipPath><clipPath id="6763cb5a1d"><path d="M 74.652344 93.75 C 74.652344 41.976562 125.175781 0.00390625 187.5 0.00390625 C 249.824219 0.00390625 300.34375 41.976562 300.34375 93.75 L 300.34375 281.242188 C 300.34375 333.015625 249.824219 374.988281 187.5 374.988281 C 125.175781 374.988281 74.652344 333.015625 74.652344 281.242188 Z M 74.652344 93.75 " clip-rule="nonzero"/></clipPath></defs><g fill="#000000" fill-opacity="1"><g transform="translate(149.834966, 142.523798)"><g><path d="M 25.265625 -12.0625 C 25.265625 -9.320312 25.570312 -7.3125 26.1875 -6.03125 C 26.8125 -4.757812 27.953125 -3.882812 29.609375 -3.40625 C 31.265625 -2.9375 33.890625 -2.703125 37.484375 -2.703125 L 55.65625 -2.703125 C 65.03125 -2.703125 70.566406 -8.710938 72.265625 -20.734375 C 72.265625 -21.015625 72.523438 -21.128906 73.046875 -21.078125 C 73.566406 -21.035156 73.828125 -20.875 73.828125 -20.59375 C 72.972656 -13.113281 72.546875 -6.957031 72.546875 -2.125 C 72.546875 -1.375 72.40625 -0.832031 72.125 -0.5 C 71.84375 -0.164062 71.273438 0 70.421875 0 L 5.109375 0 C 4.921875 0 4.828125 -0.28125 4.828125 -0.84375 C 4.828125 -1.414062 4.921875 -1.703125 5.109375 -1.703125 C 8.804688 -1.703125 11.53125 -1.9375 13.28125 -2.40625 C 15.03125 -2.882812 16.210938 -3.804688 16.828125 -5.171875 C 17.441406 -6.546875 17.75 -8.65625 17.75 -11.5 L 17.75 -77.234375 C 17.75 -80.078125 17.441406 -82.160156 16.828125 -83.484375 C 16.210938 -84.804688 15.03125 -85.726562 13.28125 -86.25 C 11.53125 -86.769531 8.804688 -87.03125 5.109375 -87.03125 C 4.921875 -87.03125 4.828125 -87.3125 4.828125 -87.875 C 4.828125 -88.445312 4.921875 -88.734375 5.109375 -88.734375 L 12.0625 -88.59375 C 16.039062 -88.40625 19.164062 -88.3125 21.4375 -88.3125 C 23.988281 -88.3125 27.253906 -88.40625 31.234375 -88.59375 L 37.90625 -88.734375 C 38.09375 -88.734375 38.1875 -88.445312 38.1875 -87.875 C 38.1875 -87.3125 38.09375 -87.03125 37.90625 -87.03125 C 34.21875 -87.03125 31.5 -86.769531 29.75 -86.25 C 28 -85.726562 26.8125 -84.78125 26.1875 -83.40625 C 25.570312 -82.039062 25.265625 -79.9375 25.265625 -77.09375 Z M 25.265625 -12.0625 "/></g></g></g><g fill="#000000" fill-opacity="1"><g transform="translate(137.136118, 316.560638)"><g><path d="M 57.5 1.703125 C 47.1875 1.703125 38.21875 -0.398438 30.59375 -4.609375 C 22.976562 -8.828125 17.132812 -14.507812 13.0625 -21.65625 C 8.988281 -28.800781 6.953125 -36.632812 6.953125 -45.15625 C 6.953125 -54.332031 9.25 -62.328125 13.84375 -69.140625 C 18.4375 -75.960938 24.726562 -81.191406 32.71875 -84.828125 C 40.71875 -88.472656 49.691406 -90.296875 59.640625 -90.296875 C 64.835938 -90.296875 69.613281 -89.773438 73.96875 -88.734375 C 78.320312 -87.691406 82.015625 -86.226562 85.046875 -84.34375 C 85.710938 -83.863281 86.09375 -83.503906 86.1875 -83.265625 C 86.28125 -83.035156 86.375 -82.351562 86.46875 -81.21875 L 88.171875 -65.3125 C 88.171875 -65.03125 87.910156 -64.84375 87.390625 -64.75 C 86.867188 -64.65625 86.5625 -64.75 86.46875 -65.03125 C 84.382812 -72.882812 81.09375 -78.703125 76.59375 -82.484375 C 72.101562 -86.273438 65.785156 -88.171875 57.640625 -88.171875 C 49.785156 -88.171875 42.734375 -86.488281 36.484375 -83.125 C 30.242188 -79.769531 25.320312 -74.988281 21.71875 -68.78125 C 18.125 -62.582031 16.328125 -55.320312 16.328125 -47 C 16.328125 -39.144531 17.957031 -31.664062 21.21875 -24.5625 C 24.488281 -17.46875 29.503906 -11.644531 36.265625 -7.09375 C 43.035156 -2.550781 51.394531 -0.28125 61.34375 -0.28125 C 68.34375 -0.28125 73.285156 -1.628906 76.171875 -4.328125 C 79.054688 -7.023438 80.5 -11.5 80.5 -17.75 C 80.5 -22.664062 80.164062 -26.09375 79.5 -28.03125 C 78.84375 -29.976562 77.425781 -31.28125 75.25 -31.9375 C 73.070312 -32.601562 69.285156 -32.9375 63.890625 -32.9375 C 63.328125 -32.9375 63.046875 -33.316406 63.046875 -34.078125 C 63.046875 -34.359375 63.113281 -34.617188 63.25 -34.859375 C 63.394531 -35.097656 63.5625 -35.21875 63.75 -35.21875 C 71.039062 -34.738281 76.910156 -34.5 81.359375 -34.5 C 85.617188 -34.5 90.160156 -34.640625 94.984375 -34.921875 C 95.171875 -34.921875 95.335938 -34.800781 95.484375 -34.5625 C 95.628906 -34.332031 95.703125 -34.125 95.703125 -33.9375 C 95.703125 -33.269531 95.460938 -32.9375 94.984375 -32.9375 C 92.523438 -33.03125 90.773438 -32.722656 89.734375 -32.015625 C 88.691406 -31.304688 88.03125 -29.863281 87.75 -27.6875 C 87.46875 -25.507812 87.328125 -21.722656 87.328125 -16.328125 C 87.328125 -12.066406 87.488281 -9.035156 87.8125 -7.234375 C 88.144531 -5.441406 88.3125 -4.304688 88.3125 -3.828125 C 88.3125 -3.265625 88.21875 -2.882812 88.03125 -2.6875 C 87.84375 -2.5 87.414062 -2.3125 86.75 -2.125 C 75.300781 0.425781 65.550781 1.703125 57.5 1.703125 Z M 57.5 1.703125 "/></g></g></g><path stroke-linecap="butt" transform="matrix(0.75, 0, 0, 0.75, 136.132481, 185.624988)" fill="none" stroke-linejoin="miter" d="M 0.000441786 2.500016 L 136.979617 2.500016 " stroke="#000000" stroke-width="5" stroke-opacity="1" stroke-miterlimit="4"/><g clip-path="url(#90031b6401)"><g clip-path="url(#6763cb5a1d)"><path stroke-linecap="butt" transform="matrix(0, -0.75, 0.75, 0, 74.654296, 374.987025)" fill="none" stroke-linejoin="miter" d="M 374.982725 -0.00260353 C 444.013979 -0.00260353 499.977524 67.361984 499.977524 150.460948 C 499.977524 233.559912 444.013979 300.919291 374.982725 300.919291 L 124.993125 300.919291 C 55.96187 300.919291 -0.00167503 233.559912 -0.00167503 150.460948 C -0.00167503 67.361984 55.96187 -0.00260353 124.993125 -0.00260353 Z M 374.982725 -0.00260353 " stroke="#3d3b3a" stroke-width="2" stroke-opacity="1" stroke-miterlimit="4"/></g></g></svg>