<svg xmlns="http://www.w3.org/2000/svg" xmlns:xlink="http://www.w3.org/1999/xlink" width="323" zoomAndPan="magnify" viewBox="0 0 242.87999 153.000002" height="204" preserveAspectRatio="xMidYMid meet" version="1.0"><defs><g/><clipPath id="2659e68a76"><path d="M 49.074219 34.597656 L 193.625 34.597656 L 193.625 118 L 49.074219 118 Z M 49.074219 34.597656 " clip-rule="nonzero"/></clipPath><clipPath id="dd3d7eb58c"><path d="M 131.046875 34.597656 C 132.628906 34.597656 134.222656 34.597656 135.800781 34.597656 C 148.402344 35.984375 156.277344 40.609375 159.863281 48.175781 C 180.871094 47.167969 196.441406 61.472656 186.835938 75.511719 C 189.929688 78.460938 192.511719 81.761719 193.445312 86.191406 C 193.445312 87.460938 193.445312 88.726562 193.445312 89.996094 C 190.667969 101.269531 178.707031 108.886719 159.074219 106.835938 C 154.023438 112.625 145.035156 118.597656 131.046875 117.699219 C 123.820312 117.320312 118.789062 115.117188 114.386719 112.445312 C 109.746094 114.667969 104.722656 116.410156 97.464844 116.429688 C 80.675781 116.464844 69.441406 107.898438 69.171875 96.152344 C 58.375 93.40625 51.066406 88.277344 49.074219 79.5 C 49.074219 78.230469 49.074219 76.957031 49.074219 75.695312 C 51.273438 67 58.183594 61.535156 69.695312 59.21875 C 69.003906 44.546875 92.03125 35.378906 110.945312 41.84375 C 115.449219 38.648438 121.820312 35.160156 131.046875 34.597656 Z M 131.046875 34.597656 " clip-rule="nonzero"/></clipPath></defs><g clip-path="url(#2659e68a76)"><g clip-path="url(#dd3d7eb58c)"><path stroke-linecap="butt" transform="matrix(0.74513, 0, 0, 0.74513, 49.074627, 34.597081)" fill="none" stroke-linejoin="miter" d="M 110.010696 0.000772477 C 112.133858 0.000772477 114.272747 0.000772477 116.390667 0.000772477 C 133.302569 1.861816 143.871198 8.068788 148.683698 18.223269 C 176.877192 16.870736 197.7733 36.068314 184.882299 54.90941 C 189.03426 58.867404 192.49947 63.297211 193.752398 69.242064 C 193.752398 70.945836 193.752398 72.644366 193.752398 74.348138 C 190.025069 89.477633 173.972916 99.700264 147.624739 96.948017 C 140.846347 104.717217 128.783642 112.732809 110.010696 111.527063 C 100.312302 111.018552 93.560123 108.061853 87.651966 104.476068 C 81.424024 107.45898 74.68233 109.797079 64.941997 109.823291 C 42.410268 109.870472 27.333197 98.373943 26.971473 82.610121 C 12.481548 78.924731 2.673064 72.041493 -0.000547467 60.261876 C -0.000547467 58.558104 -0.000547467 56.849089 -0.000547467 55.155802 C 2.95091 43.486275 12.224672 36.152192 27.673951 33.043463 C 26.746051 13.353102 57.649853 1.049248 83.033434 9.725378 C 89.077892 5.437116 97.628206 0.755675 110.010696 0.000772477 Z M 110.010696 0.000772477 " stroke="#ffffff" stroke-width="2" stroke-opacity="1" stroke-miterlimit="4"/></g></g><g fill="#ffffff" fill-opacity="1"><g transform="translate(73.679658, 85.245107)"><g><path d="M 10.25 0.265625 C 8.632812 0.265625 7.191406 -0.0820312 5.921875 -0.78125 C 4.660156 -1.476562 3.664062 -2.546875 2.9375 -3.984375 C 2.21875 -5.421875 1.859375 -7.207031 1.859375 -9.34375 C 1.859375 -11.476562 2.21875 -13.265625 2.9375 -14.703125 C 3.664062 -16.140625 4.660156 -17.207031 5.921875 -17.90625 C 7.191406 -18.601562 8.632812 -18.953125 10.25 -18.953125 C 11.863281 -18.953125 13.300781 -18.601562 14.5625 -17.90625 C 15.820312 -17.207031 16.8125 -16.140625 17.53125 -14.703125 C 18.257812 -13.265625 18.625 -11.476562 18.625 -9.34375 C 18.625 -7.207031 18.257812 -5.421875 17.53125 -3.984375 C 16.8125 -2.546875 15.820312 -1.476562 14.5625 -0.78125 C 13.300781 -0.0820312 11.863281 0.265625 10.25 0.265625 Z M 10.25 -1.765625 C 12.1875 -1.765625 13.675781 -2.367188 14.71875 -3.578125 C 15.757812 -4.796875 16.28125 -6.71875 16.28125 -9.34375 C 16.28125 -11.96875 15.757812 -13.882812 14.71875 -15.09375 C 13.675781 -16.3125 12.1875 -16.921875 10.25 -16.921875 C 6.226562 -16.921875 4.21875 -14.394531 4.21875 -9.34375 C 4.21875 -4.289062 6.226562 -1.765625 10.25 -1.765625 Z M 10.25 -1.765625 "/></g></g></g><g fill="#ffffff" fill-opacity="1"><g transform="translate(94.17937, 85.245107)"><g><path d="M 2.828125 0 L 2.828125 -18.6875 L 9.90625 -18.6875 C 11.050781 -18.6875 12.023438 -18.5 12.828125 -18.125 C 13.628906 -17.757812 14.234375 -17.238281 14.640625 -16.5625 C 15.046875 -15.882812 15.25 -15.078125 15.25 -14.140625 C 15.25 -13.335938 15.023438 -12.609375 14.578125 -11.953125 C 14.140625 -11.296875 13.515625 -10.785156 12.703125 -10.421875 L 12.703125 -10.140625 C 13.941406 -9.835938 14.882812 -9.28125 15.53125 -8.46875 C 16.175781 -7.664062 16.5 -6.648438 16.5 -5.421875 C 16.5 -3.679688 15.988281 -2.34375 14.96875 -1.40625 C 13.945312 -0.46875 12.4375 0 10.4375 0 Z M 9.796875 -10.84375 C 10.828125 -10.84375 11.628906 -11.109375 12.203125 -11.640625 C 12.773438 -12.179688 13.0625 -12.925781 13.0625 -13.875 C 13.0625 -14.875 12.785156 -15.625 12.234375 -16.125 C 11.679688 -16.625 10.867188 -16.875 9.796875 -16.875 L 5.015625 -16.875 L 5.015625 -10.84375 Z M 10.28125 -1.8125 C 12.9375 -1.8125 14.265625 -3.015625 14.265625 -5.421875 C 14.265625 -7.816406 12.9375 -9.015625 10.28125 -9.015625 L 5.015625 -9.015625 L 5.015625 -1.8125 Z M 10.28125 -1.8125 "/></g></g></g><g fill="#ffffff" fill-opacity="1"><g transform="translate(112.16136, 85.245107)"><g><path d="M 5.015625 -18.6875 L 5.015625 -1.8125 L 14.015625 -1.8125 L 14.015625 0 L 2.828125 0 L 2.828125 -18.6875 Z M 5.015625 -18.6875 "/></g></g></g><g fill="#ffffff" fill-opacity="1"><g transform="translate(126.973819, 85.245107)"><g><path d="M 5.015625 -8.8125 L 5.015625 -1.8125 L 14.546875 -1.8125 L 14.546875 0 L 2.828125 0 L 2.828125 -18.6875 L 14.34375 -18.6875 L 14.34375 -16.875 L 5.015625 -16.875 L 5.015625 -10.625 L 13.234375 -10.625 L 13.234375 -8.8125 Z M 5.015625 -8.8125 "/></g></g></g><g fill="#ffffff" fill-opacity="1"><g transform="translate(142.757586, 85.245107)"><g><path d="M 2.828125 0 L 2.828125 -18.6875 L 5.015625 -18.6875 L 5.015625 -10.515625 L 5.421875 -10.515625 L 13.09375 -18.6875 L 15.484375 -18.6875 L 15.484375 -18.359375 L 7.40625 -9.640625 L 16.125 -0.3125 L 16.125 0 L 13.609375 0 L 5.421875 -8.59375 L 5.015625 -8.59375 L 5.015625 0 Z M 2.828125 0 "/></g></g></g><g fill="#ffffff" fill-opacity="1"><g transform="translate(159.244261, 85.245107)"><g><path d="M 5.015625 -8.8125 L 5.015625 -1.8125 L 14.546875 -1.8125 L 14.546875 0 L 2.828125 0 L 2.828125 -18.6875 L 14.34375 -18.6875 L 14.34375 -16.875 L 5.015625 -16.875 L 5.015625 -10.625 L 13.234375 -10.625 L 13.234375 -8.8125 Z M 5.015625 -8.8125 "/></g></g></g></svg>